<?xml version="1.0" encoding="UTF-8" standalone="no"?>
<!DOCTYPE svg PUBLIC "-//W3C//DTD SVG 1.1//EN" "http://www.w3.org/Graphics/SVG/1.1/DTD/svg11.dtd">
<svg width="100%" height="100%" viewBox="0 0 283 102" version="1.1" xmlns="http://www.w3.org/2000/svg" xmlns:xlink="http://www.w3.org/1999/xlink" xml:space="preserve" xmlns:serif="http://www.serif.com/" style="fill-rule:evenodd;clip-rule:evenodd;stroke-linecap:round;stroke-linejoin:round;stroke-miterlimit:1.5;">
    <g id="Artboard1" transform="matrix(0.453418,0,0,0.575002,-14.1635,272.159)">
        <rect x="31.237" y="-473.319" width="623.745" height="176.762" style="fill:none;"/>
        <g transform="matrix(2.20547,0,0,1.73913,-326.16,-791.573)">
            <g transform="matrix(0.388861,0,0,0.462128,107.28,95.2197)">
                <path d="M866.337,240.604C866.337,228.552 860.647,216.994 850.519,208.472C840.391,199.95 826.655,195.162 812.333,195.162C678.727,195.162 333.895,195.162 200.29,195.162C185.967,195.162 172.231,199.95 162.103,208.472C151.975,216.994 146.286,228.552 146.286,240.604C146.286,276.184 146.286,325.441 146.286,361.022C146.286,373.074 151.975,384.632 162.103,393.154C172.231,401.676 185.967,406.464 200.29,406.463C333.895,406.463 678.727,406.463 812.333,406.463C826.655,406.464 840.391,401.676 850.519,393.154C860.647,384.632 866.337,373.074 866.337,361.022C866.337,325.441 866.337,276.184 866.337,240.604Z" style="fill:white;stroke:rgb(206,206,206);stroke-width:1.17px;"/>
            </g>
            <g transform="matrix(1,0,0,1,-1,-3)">
                <path d="M362.455,205.362C362.455,204.301 362.034,203.283 361.284,202.533C360.534,201.783 359.516,201.362 358.455,201.362C335.609,201.362 221.849,201.362 199.003,201.362C197.942,201.362 196.924,201.783 196.174,202.533C195.424,203.283 195.003,204.301 195.003,205.362C195.003,206.229 195.003,207.146 195.003,208.014C195.003,209.075 195.424,210.092 196.174,210.842C196.924,211.592 197.942,212.014 199.003,212.014C221.849,212.014 335.609,212.014 358.455,212.014C359.516,212.014 360.534,211.592 361.284,210.842C362.034,210.092 362.455,209.075 362.455,208.014C362.455,207.146 362.455,206.229 362.455,205.362Z" style="fill:rgb(235,235,235);"/>
            </g>
            <g transform="matrix(0.628499,0,0,1,73.722,13.6174)">
                <path d="M362.455,205.362C362.455,203.152 359.606,201.362 356.091,201.362C329.559,201.362 227.9,201.362 201.367,201.362C197.852,201.362 195.003,203.152 195.003,205.362C195.003,206.229 195.003,207.146 195.003,208.014C195.003,210.223 197.852,212.014 201.367,212.014C227.9,212.014 329.559,212.014 356.091,212.014C359.606,212.014 362.455,210.223 362.455,208.014C362.455,207.146 362.455,206.229 362.455,205.362Z" style="fill:rgb(235,235,235);"/>
            </g>
            <g transform="matrix(0.628499,0,0,1,72.8698,30.2349)">
                <path d="M362.455,205.362C362.455,203.152 359.606,201.362 356.091,201.362C329.559,201.362 227.9,201.362 201.367,201.362C197.852,201.362 195.003,203.152 195.003,205.362C195.003,206.229 195.003,207.146 195.003,208.014C195.003,210.223 197.852,212.014 201.367,212.014C227.9,212.014 329.559,212.014 356.091,212.014C359.606,212.014 362.455,210.223 362.455,208.014C362.455,207.146 362.455,206.229 362.455,205.362Z" style="fill:rgb(235,235,235);"/>
                <clipPath id="_clip1">
                    <path d="M362.455,205.362C362.455,203.152 359.606,201.362 356.091,201.362C329.559,201.362 227.9,201.362 201.367,201.362C197.852,201.362 195.003,203.152 195.003,205.362C195.003,206.229 195.003,207.146 195.003,208.014C195.003,210.223 197.852,212.014 201.367,212.014C227.9,212.014 329.559,212.014 356.091,212.014C359.606,212.014 362.455,210.223 362.455,208.014C362.455,207.146 362.455,206.229 362.455,205.362Z"/>
                </clipPath>
                <g clip-path="url(#_clip1)">
                    <g transform="matrix(1.57576,0,0,0.79378,144.284,154.867)">
                        <path d="M199.909,21.335C199.909,18.552 198.101,16.296 195.87,16.296C170.178,16.296 30.616,16.296 30.616,16.296L30.616,30.562L195.87,30.562C198.101,30.562 199.909,28.306 199.909,25.523C199.909,24.164 199.909,22.694 199.909,21.335Z" style="fill:white;"/>
                    </g>
                </g>
            </g>
            <g transform="matrix(0.125409,0,0,1.97142,171.519,-147.647)">
                <path d="M362.455,203.391C362.455,202.852 359.095,202.336 353.113,201.956C347.132,201.575 339.019,201.362 330.559,201.362L226.899,201.362C218.439,201.362 210.326,201.575 204.345,201.956C198.363,202.336 195.003,202.852 195.003,203.391C195.003,205.283 195.003,208.092 195.003,209.985C195.003,210.523 198.363,211.039 204.345,211.42C210.326,211.8 218.439,212.014 226.899,212.014L330.559,212.014C339.019,212.014 347.132,211.8 353.113,211.42C359.095,211.039 362.455,210.523 362.455,209.985L362.455,203.391Z" style="fill:rgb(235,235,235);"/>
            </g>
            <g transform="matrix(0.125409,0,0,1.97142,197.389,-147.343)">
                <path d="M362.455,203.391C362.455,202.852 359.095,202.336 353.113,201.956C347.132,201.575 339.019,201.362 330.559,201.362L226.899,201.362C218.439,201.362 210.326,201.575 204.345,201.956C198.363,202.336 195.003,202.852 195.003,203.391C195.003,205.283 195.003,208.092 195.003,209.985C195.003,210.523 198.363,211.039 204.345,211.42C210.326,211.8 218.439,212.014 226.899,212.014L330.559,212.014C339.019,212.014 347.132,211.8 353.113,211.42C359.095,211.039 362.455,210.523 362.455,209.985L362.455,203.391Z" style="fill:rgb(235,235,235);"/>
            </g>
            <g transform="matrix(0.125409,0,0,1.97142,222.954,-147.343)">
                <path d="M362.455,203.391C362.455,202.852 359.095,202.336 353.113,201.956C347.132,201.575 339.019,201.362 330.559,201.362L226.899,201.362C218.439,201.362 210.326,201.575 204.345,201.956C198.363,202.336 195.003,202.852 195.003,203.391C195.003,205.283 195.003,208.092 195.003,209.985C195.003,210.523 198.363,211.039 204.345,211.42C210.326,211.8 218.439,212.014 226.899,212.014L330.559,212.014C339.019,212.014 347.132,211.8 353.113,211.42C359.095,211.039 362.455,210.523 362.455,209.985L362.455,203.391Z" style="fill:rgb(235,235,235);"/>
            </g>
        </g>
    </g>
</svg>
